<mxfile host="app.diagrams.net" agent="Mozilla/5.0 (Windows NT 10.0; Win64; x64) AppleWebKit/537.36 (KHTML, like Gecko) Chrome/131.0.0.0 Safari/537.36" version="26.0.3">
  <diagram name="Seite-1" id="-RkgGW7811Z0LGyBiH7x">
    <mxGraphModel dx="1400" dy="842" grid="1" gridSize="10" guides="1" tooltips="1" connect="1" arrows="1" fold="1" page="1" pageScale="1" pageWidth="827" pageHeight="1169" math="0" shadow="0">
      <root>
        <mxCell id="0" />
        <mxCell id="1" parent="0" />
        <mxCell id="VMfmg8et39PvQThMeTDz-4" value="" style="edgeStyle=orthogonalEdgeStyle;rounded=0;orthogonalLoop=1;jettySize=auto;html=1;" parent="1" source="VMfmg8et39PvQThMeTDz-1" target="VMfmg8et39PvQThMeTDz-3" edge="1">
          <mxGeometry relative="1" as="geometry">
            <Array as="points">
              <mxPoint x="30" y="70" />
              <mxPoint x="30" y="240" />
            </Array>
          </mxGeometry>
        </mxCell>
        <mxCell id="VMfmg8et39PvQThMeTDz-6" value="" style="edgeStyle=orthogonalEdgeStyle;rounded=0;orthogonalLoop=1;jettySize=auto;html=1;" parent="1" source="VMfmg8et39PvQThMeTDz-1" target="VMfmg8et39PvQThMeTDz-5" edge="1">
          <mxGeometry relative="1" as="geometry">
            <Array as="points">
              <mxPoint x="30" y="70" />
              <mxPoint x="30" y="480" />
            </Array>
          </mxGeometry>
        </mxCell>
        <mxCell id="VMfmg8et39PvQThMeTDz-8" value="" style="edgeStyle=orthogonalEdgeStyle;rounded=0;orthogonalLoop=1;jettySize=auto;html=1;" parent="1" source="VMfmg8et39PvQThMeTDz-1" target="VMfmg8et39PvQThMeTDz-7" edge="1">
          <mxGeometry relative="1" as="geometry">
            <Array as="points">
              <mxPoint x="30" y="70" />
              <mxPoint x="30" y="720" />
            </Array>
          </mxGeometry>
        </mxCell>
        <mxCell id="VMfmg8et39PvQThMeTDz-10" value="" style="edgeStyle=orthogonalEdgeStyle;rounded=0;orthogonalLoop=1;jettySize=auto;html=1;" parent="1" source="VMfmg8et39PvQThMeTDz-1" target="VMfmg8et39PvQThMeTDz-9" edge="1">
          <mxGeometry relative="1" as="geometry">
            <Array as="points">
              <mxPoint x="30" y="70" />
              <mxPoint x="30" y="880" />
            </Array>
          </mxGeometry>
        </mxCell>
        <mxCell id="VMfmg8et39PvQThMeTDz-12" value="" style="edgeStyle=orthogonalEdgeStyle;rounded=0;orthogonalLoop=1;jettySize=auto;html=1;" parent="1" source="VMfmg8et39PvQThMeTDz-1" target="VMfmg8et39PvQThMeTDz-11" edge="1">
          <mxGeometry relative="1" as="geometry">
            <Array as="points">
              <mxPoint x="30" y="70" />
              <mxPoint x="30" y="1050" />
            </Array>
          </mxGeometry>
        </mxCell>
        <mxCell id="VMfmg8et39PvQThMeTDz-1" value="Werbespot" style="rounded=0;whiteSpace=wrap;html=1;" parent="1" vertex="1">
          <mxGeometry x="294" y="40" width="120" height="60" as="geometry" />
        </mxCell>
        <mxCell id="VMfmg8et39PvQThMeTDz-15" value="" style="edgeStyle=orthogonalEdgeStyle;rounded=0;orthogonalLoop=1;jettySize=auto;html=1;entryX=0.5;entryY=1;entryDx=0;entryDy=0;" parent="1" source="VMfmg8et39PvQThMeTDz-3" target="VMfmg8et39PvQThMeTDz-13" edge="1">
          <mxGeometry relative="1" as="geometry">
            <Array as="points">
              <mxPoint x="460" y="240" />
            </Array>
          </mxGeometry>
        </mxCell>
        <mxCell id="VMfmg8et39PvQThMeTDz-18" value="" style="edgeStyle=orthogonalEdgeStyle;rounded=0;orthogonalLoop=1;jettySize=auto;html=1;entryX=0.5;entryY=0;entryDx=0;entryDy=0;" parent="1" source="VMfmg8et39PvQThMeTDz-3" target="VMfmg8et39PvQThMeTDz-17" edge="1">
          <mxGeometry relative="1" as="geometry">
            <Array as="points">
              <mxPoint x="460" y="240" />
            </Array>
          </mxGeometry>
        </mxCell>
        <mxCell id="VMfmg8et39PvQThMeTDz-20" value="" style="edgeStyle=orthogonalEdgeStyle;rounded=0;orthogonalLoop=1;jettySize=auto;html=1;" parent="1" source="VMfmg8et39PvQThMeTDz-3" target="VMfmg8et39PvQThMeTDz-19" edge="1">
          <mxGeometry relative="1" as="geometry">
            <Array as="points">
              <mxPoint x="260" y="240" />
            </Array>
          </mxGeometry>
        </mxCell>
        <mxCell id="VMfmg8et39PvQThMeTDz-22" value="" style="edgeStyle=orthogonalEdgeStyle;rounded=0;orthogonalLoop=1;jettySize=auto;html=1;" parent="1" source="VMfmg8et39PvQThMeTDz-3" target="VMfmg8et39PvQThMeTDz-21" edge="1">
          <mxGeometry relative="1" as="geometry">
            <Array as="points">
              <mxPoint x="390" y="240" />
              <mxPoint x="390" y="240" />
            </Array>
          </mxGeometry>
        </mxCell>
        <mxCell id="VMfmg8et39PvQThMeTDz-24" value="" style="edgeStyle=orthogonalEdgeStyle;rounded=0;orthogonalLoop=1;jettySize=auto;html=1;exitX=1;exitY=0.5;exitDx=0;exitDy=0;" parent="1" source="VMfmg8et39PvQThMeTDz-3" target="VMfmg8et39PvQThMeTDz-23" edge="1">
          <mxGeometry relative="1" as="geometry">
            <Array as="points">
              <mxPoint x="260" y="240" />
            </Array>
          </mxGeometry>
        </mxCell>
        <mxCell id="VMfmg8et39PvQThMeTDz-3" value="Planungsphase" style="whiteSpace=wrap;html=1;rounded=0;" parent="1" vertex="1">
          <mxGeometry x="50" y="210" width="120" height="60" as="geometry" />
        </mxCell>
        <mxCell id="VMfmg8et39PvQThMeTDz-26" value="" style="edgeStyle=orthogonalEdgeStyle;rounded=0;orthogonalLoop=1;jettySize=auto;html=1;" parent="1" source="VMfmg8et39PvQThMeTDz-5" target="VMfmg8et39PvQThMeTDz-25" edge="1">
          <mxGeometry relative="1" as="geometry">
            <Array as="points">
              <mxPoint x="260" y="480" />
            </Array>
          </mxGeometry>
        </mxCell>
        <mxCell id="VMfmg8et39PvQThMeTDz-29" value="" style="edgeStyle=orthogonalEdgeStyle;rounded=0;orthogonalLoop=1;jettySize=auto;html=1;" parent="1" source="VMfmg8et39PvQThMeTDz-5" target="VMfmg8et39PvQThMeTDz-28" edge="1">
          <mxGeometry relative="1" as="geometry" />
        </mxCell>
        <mxCell id="VMfmg8et39PvQThMeTDz-31" value="" style="edgeStyle=orthogonalEdgeStyle;rounded=0;orthogonalLoop=1;jettySize=auto;html=1;" parent="1" source="VMfmg8et39PvQThMeTDz-5" target="VMfmg8et39PvQThMeTDz-30" edge="1">
          <mxGeometry relative="1" as="geometry" />
        </mxCell>
        <mxCell id="VMfmg8et39PvQThMeTDz-33" value="" style="edgeStyle=orthogonalEdgeStyle;rounded=0;orthogonalLoop=1;jettySize=auto;html=1;" parent="1" source="VMfmg8et39PvQThMeTDz-5" target="VMfmg8et39PvQThMeTDz-32" edge="1">
          <mxGeometry relative="1" as="geometry" />
        </mxCell>
        <mxCell id="VMfmg8et39PvQThMeTDz-35" value="" style="edgeStyle=orthogonalEdgeStyle;rounded=0;orthogonalLoop=1;jettySize=auto;html=1;" parent="1" source="VMfmg8et39PvQThMeTDz-5" target="VMfmg8et39PvQThMeTDz-34" edge="1">
          <mxGeometry relative="1" as="geometry" />
        </mxCell>
        <mxCell id="VMfmg8et39PvQThMeTDz-5" value="Pre-Produktion" style="rounded=0;whiteSpace=wrap;html=1;" parent="1" vertex="1">
          <mxGeometry x="50" y="450" width="120" height="60" as="geometry" />
        </mxCell>
        <mxCell id="VMfmg8et39PvQThMeTDz-37" value="" style="edgeStyle=orthogonalEdgeStyle;rounded=0;orthogonalLoop=1;jettySize=auto;html=1;" parent="1" source="VMfmg8et39PvQThMeTDz-7" target="VMfmg8et39PvQThMeTDz-36" edge="1">
          <mxGeometry relative="1" as="geometry" />
        </mxCell>
        <mxCell id="VMfmg8et39PvQThMeTDz-39" value="" style="edgeStyle=orthogonalEdgeStyle;rounded=0;orthogonalLoop=1;jettySize=auto;html=1;" parent="1" source="VMfmg8et39PvQThMeTDz-7" target="VMfmg8et39PvQThMeTDz-38" edge="1">
          <mxGeometry relative="1" as="geometry" />
        </mxCell>
        <mxCell id="VMfmg8et39PvQThMeTDz-41" value="" style="edgeStyle=orthogonalEdgeStyle;rounded=0;orthogonalLoop=1;jettySize=auto;html=1;" parent="1" source="VMfmg8et39PvQThMeTDz-7" target="VMfmg8et39PvQThMeTDz-40" edge="1">
          <mxGeometry relative="1" as="geometry" />
        </mxCell>
        <mxCell id="VMfmg8et39PvQThMeTDz-7" value="Produktion" style="whiteSpace=wrap;html=1;rounded=0;" parent="1" vertex="1">
          <mxGeometry x="50" y="690" width="120" height="60" as="geometry" />
        </mxCell>
        <mxCell id="VMfmg8et39PvQThMeTDz-50" value="" style="edgeStyle=orthogonalEdgeStyle;rounded=0;orthogonalLoop=1;jettySize=auto;html=1;" parent="1" source="VMfmg8et39PvQThMeTDz-9" target="VMfmg8et39PvQThMeTDz-48" edge="1">
          <mxGeometry relative="1" as="geometry">
            <Array as="points">
              <mxPoint x="180" y="880" />
              <mxPoint x="180" y="840" />
            </Array>
          </mxGeometry>
        </mxCell>
        <mxCell id="VMfmg8et39PvQThMeTDz-52" value="" style="edgeStyle=orthogonalEdgeStyle;rounded=0;orthogonalLoop=1;jettySize=auto;html=1;" parent="1" source="VMfmg8et39PvQThMeTDz-9" target="VMfmg8et39PvQThMeTDz-51" edge="1">
          <mxGeometry relative="1" as="geometry">
            <Array as="points">
              <mxPoint x="180" y="880" />
              <mxPoint x="180" y="920" />
            </Array>
          </mxGeometry>
        </mxCell>
        <mxCell id="VMfmg8et39PvQThMeTDz-9" value="Post-Produktion" style="rounded=0;whiteSpace=wrap;html=1;" parent="1" vertex="1">
          <mxGeometry x="50" y="850" width="120" height="60" as="geometry" />
        </mxCell>
        <mxCell id="VMfmg8et39PvQThMeTDz-58" value="" style="edgeStyle=orthogonalEdgeStyle;rounded=0;orthogonalLoop=1;jettySize=auto;html=1;" parent="1" source="VMfmg8et39PvQThMeTDz-11" target="VMfmg8et39PvQThMeTDz-57" edge="1">
          <mxGeometry relative="1" as="geometry" />
        </mxCell>
        <mxCell id="VMfmg8et39PvQThMeTDz-60" value="" style="edgeStyle=orthogonalEdgeStyle;rounded=0;orthogonalLoop=1;jettySize=auto;html=1;" parent="1" source="VMfmg8et39PvQThMeTDz-11" target="VMfmg8et39PvQThMeTDz-59" edge="1">
          <mxGeometry relative="1" as="geometry" />
        </mxCell>
        <mxCell id="VMfmg8et39PvQThMeTDz-62" value="" style="edgeStyle=orthogonalEdgeStyle;rounded=0;orthogonalLoop=1;jettySize=auto;html=1;" parent="1" source="VMfmg8et39PvQThMeTDz-11" target="VMfmg8et39PvQThMeTDz-61" edge="1">
          <mxGeometry relative="1" as="geometry" />
        </mxCell>
        <mxCell id="VMfmg8et39PvQThMeTDz-11" value="Veröffentlichung und Marketing" style="rounded=0;whiteSpace=wrap;html=1;" parent="1" vertex="1">
          <mxGeometry x="60" y="1020" width="120" height="60" as="geometry" />
        </mxCell>
        <mxCell id="VMfmg8et39PvQThMeTDz-13" value="Projektziel definieren" style="whiteSpace=wrap;html=1;rounded=0;" parent="1" vertex="1">
          <mxGeometry x="400" y="140" width="120" height="60" as="geometry" />
        </mxCell>
        <mxCell id="VMfmg8et39PvQThMeTDz-17" value="Budgetplanung und Ressourcenanalyse" style="whiteSpace=wrap;html=1;rounded=0;" parent="1" vertex="1">
          <mxGeometry x="400" y="280" width="120" height="60" as="geometry" />
        </mxCell>
        <mxCell id="VMfmg8et39PvQThMeTDz-19" value="Externen Filmdienstleister engagieren" style="whiteSpace=wrap;html=1;rounded=0;" parent="1" vertex="1">
          <mxGeometry x="200" y="280" width="120" height="60" as="geometry" />
        </mxCell>
        <mxCell id="VMfmg8et39PvQThMeTDz-21" value="Konzeptentwicklung und Ideenfindung" style="whiteSpace=wrap;html=1;rounded=0;" parent="1" vertex="1">
          <mxGeometry x="600" y="210" width="120" height="60" as="geometry" />
        </mxCell>
        <mxCell id="VMfmg8et39PvQThMeTDz-23" value="Storyboard erstellen" style="whiteSpace=wrap;html=1;rounded=0;" parent="1" vertex="1">
          <mxGeometry x="200" y="140" width="120" height="60" as="geometry" />
        </mxCell>
        <mxCell id="VMfmg8et39PvQThMeTDz-25" value="Erstellung eines Drehbuchs" style="whiteSpace=wrap;html=1;rounded=0;" parent="1" vertex="1">
          <mxGeometry x="200" y="380" width="120" height="60" as="geometry" />
        </mxCell>
        <mxCell id="VMfmg8et39PvQThMeTDz-28" value="Recherche und Auswahl geeigneter Vorlesungen" style="whiteSpace=wrap;html=1;rounded=0;" parent="1" vertex="1">
          <mxGeometry x="200" y="520" width="120" height="60" as="geometry" />
        </mxCell>
        <mxCell id="VMfmg8et39PvQThMeTDz-30" value="Anfragen von Darstellern" style="whiteSpace=wrap;html=1;rounded=0;" parent="1" vertex="1">
          <mxGeometry x="400" y="380" width="120" height="60" as="geometry" />
        </mxCell>
        <mxCell id="VMfmg8et39PvQThMeTDz-32" value="Recherche und Auswahl von sonstigen Drehorten" style="whiteSpace=wrap;html=1;rounded=0;" parent="1" vertex="1">
          <mxGeometry x="400" y="520" width="120" height="60" as="geometry" />
        </mxCell>
        <mxCell id="VMfmg8et39PvQThMeTDz-34" value="Zeitplan für den Dreh erstellen" style="whiteSpace=wrap;html=1;rounded=0;" parent="1" vertex="1">
          <mxGeometry x="600" y="450" width="120" height="60" as="geometry" />
        </mxCell>
        <mxCell id="VMfmg8et39PvQThMeTDz-36" value="Technik vorbereiten und testen" style="whiteSpace=wrap;html=1;rounded=0;" parent="1" vertex="1">
          <mxGeometry x="200" y="620" width="120" height="60" as="geometry" />
        </mxCell>
        <mxCell id="VMfmg8et39PvQThMeTDz-38" value="Dreharbeiten durchführen" style="whiteSpace=wrap;html=1;rounded=0;" parent="1" vertex="1">
          <mxGeometry x="600" y="690" width="120" height="60" as="geometry" />
        </mxCell>
        <mxCell id="VMfmg8et39PvQThMeTDz-40" value="Begleitmaterial aufnehmen" style="whiteSpace=wrap;html=1;rounded=0;" parent="1" vertex="1">
          <mxGeometry x="400" y="620" width="120" height="60" as="geometry" />
        </mxCell>
        <mxCell id="VMfmg8et39PvQThMeTDz-42" value="Sichtung und Auswahl des Filmmaterials" style="rounded=0;whiteSpace=wrap;html=1;" parent="1" vertex="1">
          <mxGeometry x="600" y="780" width="120" height="60" as="geometry" />
        </mxCell>
        <mxCell id="VMfmg8et39PvQThMeTDz-44" value="Schnitt und Nachbearbeitung" style="whiteSpace=wrap;html=1;rounded=0;" parent="1" vertex="1">
          <mxGeometry x="400" y="780" width="120" height="60" as="geometry" />
        </mxCell>
        <mxCell id="VMfmg8et39PvQThMeTDz-46" value="Einfügen von Soundeffekten und Musik" style="whiteSpace=wrap;html=1;rounded=0;" parent="1" vertex="1">
          <mxGeometry x="400" y="920" width="120" height="60" as="geometry" />
        </mxCell>
        <mxCell id="VMfmg8et39PvQThMeTDz-56" style="edgeStyle=orthogonalEdgeStyle;rounded=0;orthogonalLoop=1;jettySize=auto;html=1;exitX=1;exitY=0.5;exitDx=0;exitDy=0;entryX=0.5;entryY=1;entryDx=0;entryDy=0;" parent="1" source="VMfmg8et39PvQThMeTDz-48" target="VMfmg8et39PvQThMeTDz-44" edge="1">
          <mxGeometry relative="1" as="geometry">
            <Array as="points">
              <mxPoint x="353" y="860" />
              <mxPoint x="460" y="860" />
            </Array>
          </mxGeometry>
        </mxCell>
        <mxCell id="VMfmg8et39PvQThMeTDz-63" style="edgeStyle=orthogonalEdgeStyle;rounded=0;orthogonalLoop=1;jettySize=auto;html=1;exitX=1;exitY=0.5;exitDx=0;exitDy=0;entryX=0.5;entryY=1;entryDx=0;entryDy=0;" parent="1" source="VMfmg8et39PvQThMeTDz-48" target="VMfmg8et39PvQThMeTDz-42" edge="1">
          <mxGeometry relative="1" as="geometry">
            <Array as="points">
              <mxPoint x="353" y="860" />
              <mxPoint x="660" y="860" />
            </Array>
          </mxGeometry>
        </mxCell>
        <mxCell id="VMfmg8et39PvQThMeTDz-48" value="Rohschnitt" style="whiteSpace=wrap;html=1;rounded=0;" parent="1" vertex="1">
          <mxGeometry x="200" y="810" width="120" height="60" as="geometry" />
        </mxCell>
        <mxCell id="VMfmg8et39PvQThMeTDz-64" style="edgeStyle=orthogonalEdgeStyle;rounded=0;orthogonalLoop=1;jettySize=auto;html=1;exitX=1;exitY=0.5;exitDx=0;exitDy=0;entryX=0.5;entryY=0;entryDx=0;entryDy=0;" parent="1" source="VMfmg8et39PvQThMeTDz-51" target="VMfmg8et39PvQThMeTDz-46" edge="1">
          <mxGeometry relative="1" as="geometry">
            <Array as="points">
              <mxPoint x="353" y="900" />
              <mxPoint x="460" y="900" />
            </Array>
          </mxGeometry>
        </mxCell>
        <mxCell id="VMfmg8et39PvQThMeTDz-65" style="edgeStyle=orthogonalEdgeStyle;rounded=0;orthogonalLoop=1;jettySize=auto;html=1;exitX=1;exitY=0.5;exitDx=0;exitDy=0;entryX=0.5;entryY=0;entryDx=0;entryDy=0;" parent="1" source="VMfmg8et39PvQThMeTDz-51" target="VMfmg8et39PvQThMeTDz-54" edge="1">
          <mxGeometry relative="1" as="geometry">
            <Array as="points">
              <mxPoint x="353" y="900" />
              <mxPoint x="660" y="900" />
            </Array>
          </mxGeometry>
        </mxCell>
        <mxCell id="VMfmg8et39PvQThMeTDz-51" value="Feinschnitt" style="whiteSpace=wrap;html=1;rounded=0;" parent="1" vertex="1">
          <mxGeometry x="200" y="890" width="120" height="60" as="geometry" />
        </mxCell>
        <mxCell id="VMfmg8et39PvQThMeTDz-54" value="Texte und Animationen hinzufügen" style="whiteSpace=wrap;html=1;rounded=0;" parent="1" vertex="1">
          <mxGeometry x="600" y="920" width="120" height="60" as="geometry" />
        </mxCell>
        <mxCell id="VMfmg8et39PvQThMeTDz-57" value="Feedback einholen und finalisieren" style="whiteSpace=wrap;html=1;rounded=0;" parent="1" vertex="1">
          <mxGeometry x="200" y="1090" width="120" height="60" as="geometry" />
        </mxCell>
        <mxCell id="VMfmg8et39PvQThMeTDz-59" value="Werbespot veröffentlichen und Kampagne starten" style="whiteSpace=wrap;html=1;rounded=0;" parent="1" vertex="1">
          <mxGeometry x="410" y="1090" width="120" height="60" as="geometry" />
        </mxCell>
        <mxCell id="VMfmg8et39PvQThMeTDz-61" value="Vorläufige Evaluation des Erfolgs" style="whiteSpace=wrap;html=1;rounded=0;" parent="1" vertex="1">
          <mxGeometry x="600" y="1090" width="120" height="60" as="geometry" />
        </mxCell>
      </root>
    </mxGraphModel>
  </diagram>
</mxfile>
